<svg id="Layer_1" data-name="Layer 1" xmlns="http://www.w3.org/2000/svg" viewBox="0 0 591.39 144"><defs><style>.cls-1{fill:#002d59;}.cls-2{fill:#2283c6;}</style></defs><path class="cls-1" d="M210.25,56.21h-11L181.43,25.26h-.26q.54,8.21.54,11.69V56.21H174V15.3h11l17.76,30.64h.2c-.28-5.32-.43-9.08-.43-11.27V15.3h7.82Z"/><path class="cls-1" d="M245.79,56.21l-3-9.74H227.92l-3,9.74h-9.34L230,15.13h10.61l14.49,41.08Zm-5-17q-4.11-13.23-4.63-15c-.35-1.15-.59-2.06-.74-2.74q-.93,3.59-5.29,17.71Z"/><path class="cls-1" d="M288.76,28.06q0,6.6-4.13,10.1t-11.74,3.49h-3.71V56.21H260.5V15.3h13.07q7.44,0,11.32,3.21T288.76,28.06Zm-19.58,6.49H272c2.66,0,4.66-.52,6-1.58a5.54,5.54,0,0,0,2-4.6,5.69,5.69,0,0,0-1.66-4.51q-1.66-1.45-5.22-1.45h-3.94Z"/><path class="cls-1" d="M333.26,35.7q0,10.15-5,15.61t-14.44,5.46q-9.41,0-14.44-5.46t-5-15.67q0-10.22,5.06-15.6t14.47-5.38q9.44,0,14.43,5.42T333.26,35.7Zm-29.85,0q0,6.86,2.6,10.32t7.78,3.47q10.38,0,10.38-13.79T313.84,21.88q-5.18,0-7.8,3.48T303.41,35.7Z"/><path class="cls-1" d="M341.1,56.21V15.3h8.67V49h16.6v7.17Z"/><path class="cls-1" d="M372.69,56.21V15.3h8.67V56.21Z"/><path class="cls-2" d="M199.79,95.34a10.59,10.59,0,0,1-4,8.73q-4,3.2-11.1,3.19a26.08,26.08,0,0,1-11.58-2.46V96.74a47.46,47.46,0,0,0,7,2.6,20.39,20.39,0,0,0,5.24.76A7.51,7.51,0,0,0,189.76,99a3.73,3.73,0,0,0,1.53-3.25,3.59,3.59,0,0,0-.68-2.14,7.28,7.28,0,0,0-2-1.8,48.67,48.67,0,0,0-5.3-2.77,25.09,25.09,0,0,1-5.62-3.39,12.82,12.82,0,0,1-3-3.77,10.91,10.91,0,0,1-1.12-5,10.58,10.58,0,0,1,3.68-8.54q3.69-3.11,10.17-3.1a24.19,24.19,0,0,1,6.09.75,40.88,40.88,0,0,1,6.06,2.13l-2.8,6.74A42.51,42.51,0,0,0,191.38,73a17.58,17.58,0,0,0-4.21-.52,5.57,5.57,0,0,0-3.77,1.14,3.8,3.8,0,0,0-1.32,3,3.76,3.76,0,0,0,.53,2,5.92,5.92,0,0,0,1.69,1.65,52,52,0,0,0,5.5,2.86q5.74,2.74,7.87,5.5A10.78,10.78,0,0,1,199.79,95.34Z"/><path class="cls-2" d="M240.44,106.7h-8.65V89.05h-16.2V106.7h-8.67V65.79h8.67v16h16.2v-16h8.65Z"/><path class="cls-2" d="M282.92,106.7h-9.85L262.36,89.47,258.7,92.1v14.6H250V65.79h8.68V84.51l3.41-4.81,11.08-13.91h9.62L268.55,83.9Z"/><path class="cls-2" d="M323.35,86.19q0,10.16-5,15.62t-14.44,5.45q-9.4,0-14.43-5.45t-5-15.68q0-10.2,5.05-15.59t14.48-5.39q9.44,0,14.42,5.42T323.35,86.19Zm-29.86,0q0,6.86,2.6,10.32c1.74,2.32,4.33,3.47,7.78,3.47q10.38,0,10.38-13.79T303.93,72.37q-5.18,0-7.81,3.48T293.49,86.19Z"/><path class="cls-2" d="M331.18,106.7V65.79h8.67V99.54h16.6v7.16Z"/><path class="cls-2" d="M399.06,106.7H388l-17.8-30.95H370q.52,8.2.53,11.7V106.7h-7.75V65.79h10.94l17.77,30.64h.2c-.29-5.31-.43-9.08-.43-11.27V65.79h7.81Z"/><path class="cls-2" d="M408.63,106.7V65.79h8.67V106.7Z"/><path class="cls-2" d="M459.78,106.7h-9.85L439.21,89.47l-3.66,2.63v14.6h-8.68V65.79h8.68V84.51L439,79.7,450,65.79h9.62L445.39,83.9Z"/><path class="cls-1" d="M500.37,77.54q0,5.94-4,9.1T484.92,89.8H478.6v16.9h-2.85V65.79h10Q500.37,65.79,500.37,77.54Zm-21.77,9.8h5.63q6.9,0,10-2.28c2.06-1.52,3.08-4,3.08-7.4,0-3.16-1-5.49-2.91-7s-4.94-2.28-9-2.28H478.6Z"/><path class="cls-1" d="M507.78,106.7V65.79h2.85V104h19.51v2.68Z"/><path class="cls-1" d="M536.65,106.7V65.79h2.86V104H559v2.68Z"/><path class="cls-1" d="M580.85,67.78q-7.7,0-12.12,4.92c-3,3.28-4.41,7.78-4.41,13.49s1.38,10.38,4.16,13.6,6.75,4.84,11.92,4.84a32.41,32.41,0,0,0,9.45-1.31v2.51a30.54,30.54,0,0,1-10.12,1.43q-8.62,0-13.58-5.57t-4.94-15.56a24.48,24.48,0,0,1,2.36-11,17.16,17.16,0,0,1,6.8-7.35,20.11,20.11,0,0,1,10.31-2.58,24.75,24.75,0,0,1,10.71,2.23L590.25,70A20.78,20.78,0,0,0,580.85,67.78Z"/><path class="cls-1" d="M188.57,143.73l-1.95-5.39H179.2l-1.9,5.39H174l7.27-19.5h3.45l7.27,19.5Zm-2.78-8.13L184,130.32c-.13-.36-.32-.91-.55-1.67s-.4-1.32-.49-1.68a29.8,29.8,0,0,1-1.05,3.57l-1.75,5.06Z"/><path class="cls-1" d="M201.6,143.73h-3.18V127h-5.7v-2.73h14.59V127H201.6Z"/><path class="cls-1" d="M219.89,143.73h-3.17V127H211v-2.73H225.6V127h-5.71Z"/><path class="cls-1" d="M247.34,134q0,4.74-2.37,7.37a10,10,0,0,1-13.47,0c-1.58-1.74-2.36-4.21-2.36-7.42s.79-5.67,2.37-7.39a8.77,8.77,0,0,1,6.77-2.57,8.56,8.56,0,0,1,6.69,2.61Q247.34,129.25,247.34,134Zm-14.82,0a8.76,8.76,0,0,0,1.44,5.44,5.9,5.9,0,0,0,8.56,0,11.06,11.06,0,0,0,0-10.88,5.06,5.06,0,0,0-4.26-1.85,5.16,5.16,0,0,0-4.31,1.85A8.63,8.63,0,0,0,232.52,134Z"/><path class="cls-1" d="M256.38,136v7.75H253.2V124.31h5.49q3.76,0,5.56,1.41a5,5,0,0,1,1.81,4.25q0,3.63-3.77,5.17l5.48,8.59h-3.61L259.52,136Zm0-2.64h2.2a5,5,0,0,0,3.21-.82,3,3,0,0,0,1-2.44,2.63,2.63,0,0,0-1.08-2.36,5.89,5.89,0,0,0-3.24-.72h-2.1Z"/><path class="cls-1" d="M288.71,143.73h-3.9l-9.54-15.47h-.11l.07.86c.12,1.65.18,3.16.18,4.52v10.09h-2.88V124.31h3.85l9.53,15.4H286c0-.2-.05-1-.11-2.22s-.07-2.28-.07-3V124.31h2.91Z"/><path class="cls-1" d="M306.47,143.73h-11V124.31h11V127h-7.81v5.29H306v2.65h-7.32V141h7.81Z"/><path class="cls-1" d="M318.66,133.17l4.6-8.86h3.45l-6.47,11.89v7.53h-3.19v-7.42l-6.44-12h3.46Z"/><path class="cls-1" d="M342.25,138.46a4.87,4.87,0,0,1-1.88,4.06,8.08,8.08,0,0,1-5.16,1.48,12.38,12.38,0,0,1-5.4-1v-3a15.24,15.24,0,0,0,2.83,1,11.81,11.81,0,0,0,2.78.35,4.41,4.41,0,0,0,2.78-.71,2.34,2.34,0,0,0,.9-1.93,2.4,2.4,0,0,0-.82-1.84,12.34,12.34,0,0,0-3.4-1.8,8.85,8.85,0,0,1-3.75-2.45,5.18,5.18,0,0,1-1.09-3.32,4.67,4.67,0,0,1,1.73-3.83,7.14,7.14,0,0,1,4.63-1.4,13.68,13.68,0,0,1,5.55,1.22l-1,2.6a12,12,0,0,0-4.62-1.1,3.57,3.57,0,0,0-2.34.68,2.21,2.21,0,0,0-.79,1.77,2.44,2.44,0,0,0,.32,1.3,3.19,3.19,0,0,0,1.05,1,17.93,17.93,0,0,0,2.62,1.27,13.85,13.85,0,0,1,3.14,1.66,4.76,4.76,0,0,1,1.46,1.74A5.21,5.21,0,0,1,342.25,138.46Z"/><path class="cls-1" d="M367.84,143.73l-1.94-5.39h-7.42l-1.9,5.39h-3.35l7.27-19.5H364l7.27,19.5Zm-2.77-8.13-1.82-5.28c-.14-.36-.32-.91-.56-1.67s-.39-1.32-.48-1.68a29.8,29.8,0,0,1-1,3.57l-1.75,5.06Z"/><path class="cls-1" d="M380.88,143.73H377.7V127H372v-2.73h14.6V127h-5.71Z"/><path class="cls-1" d="M399.35,143.73V124.31h3.17V141h8.23v2.72Z"/><path class="cls-1" d="M429.05,143.73l-1.93-5.39h-7.43l-1.9,5.39h-3.35l7.27-19.5h3.45l7.27,19.5Zm-2.77-8.13-1.82-5.28c-.13-.36-.32-.91-.55-1.67s-.4-1.32-.49-1.68a29.8,29.8,0,0,1-1.05,3.57l-1.75,5.06Z"/><path class="cls-1" d="M454.08,143.73h-3.45l-3.3-11.58c-.14-.5-.32-1.23-.53-2.19s-.34-1.61-.38-2c-.09.56-.24,1.3-.44,2.2s-.36,1.58-.5,2l-3.21,11.52h-3.45L436.31,134l-2.55-9.7H437l2.78,11.32c.42,1.82.74,3.42.92,4.81.1-.76.25-1.59.44-2.53s.37-1.67.53-2.25l3.16-11.35H448l3.24,11.4a40.87,40.87,0,0,1,1,4.73,33.4,33.4,0,0,1,1-4.84l2.77-11.29h3.21Z"/><polygon class="cls-2" points="0 132.92 72.01 144 52.81 124.8 0 132.92"/><polygon class="cls-2" points="144.01 132.92 91.21 124.8 72.01 144 72.01 144 144.01 132.92"/><path class="cls-1" d="M72,144,0,72A51.74,51.74,0,0,1,36.33,56.77C49.25,56.71,62.1,70.12,72,80.06c0,0,22.75-23.36,35.66-23.29A51.78,51.78,0,0,1,144,72Z"/><path class="cls-2" d="M36.33,56.77A51.74,51.74,0,0,0,0,72L72,0l72,72a51.78,51.78,0,0,0-36.34-15.22Z"/></svg>